<svg width="150" height="137" viewBox="0 0 150 137" fill="none" xmlns="http://www.w3.org/2000/svg">
<path d="M133.124 17.8128L38.7225 72.2198L36.9179 75.1258C46.4113 72.0402 46.5543 76.4 52.2974 76.1534C47.0807 80.5942 43.2171 90.7091 37.644 92.9793C33.1068 94.8313 24.6646 98.4703 21.6889 99.7574L14.8368 110.867L17.3303 114.208L137.241 52.6776L134.87 19.3387L133.124 17.8128Z" fill="#001C18"/>
<path d="M121.371 96.2988C116.662 93.3945 116.107 82.5397 112.435 77.425C118.3 78.3092 122.138 74.1882 132.049 79.9082L131.413 73.8694L35.5044 22.3555L7.65495 49.3784L6.34151 51.8361L133.718 118.757L135.901 116.475L134.676 104.857C132.119 103.17 125.166 98.6368 121.371 96.2988Z" fill="#001C18"/>
<path d="M132.053 79.9075L130.17 81.9053C128.071 80.3821 125.631 79.3957 123.064 79.0324C118.993 78.5332 117.605 80.5607 111.959 79.3193C111.429 78.9651 111.049 78.4267 110.892 77.8085C110.736 77.1902 110.815 76.536 111.113 75.9724L123.199 74.5109L132.053 79.9075Z" fill="#001C18"/>
<path d="M121.371 96.2988C116.662 93.3944 116.107 82.5396 112.435 77.4249C118.3 78.3092 122.138 74.1881 132.049 79.9082L131.413 73.8694L30.1629 20.756L7.65496 49.3784L135.911 116.461L134.686 104.843C132.119 103.17 125.166 98.6368 121.371 96.2988Z" fill="#004B40"/>
<path d="M81.3953 47.6278L44.7294 68.7613L75.0209 84.6076L113.88 64.6649L81.3953 47.6278Z" fill="#001C18"/>
<path d="M36.9178 75.1258L38.5384 77.6654C38.5384 77.6654 41.1839 75.6193 44.3243 76.7698C47.4646 77.9203 50.2553 79.8777 54.6141 77.9837C54.9276 76.3203 54.6613 74.5997 53.8595 73.1089C53.8595 73.1089 43.0898 71.5437 42.862 71.5789C42.6343 71.6142 36.9178 75.1258 36.9178 75.1258Z" fill="#001C18"/>
<path d="M38.7225 72.2198L36.9179 75.1259C46.4113 72.0402 46.5543 76.4 52.2974 76.1534C47.0807 80.5942 43.2171 90.7091 37.644 92.9793C33.1068 94.8313 24.6646 98.4703 21.6889 99.7574L14.8368 110.867L134.792 50.8391L133.124 17.8128L38.7225 72.2198Z" fill="#004B40"/>
<path d="M81.3277 45.7113L37.506 68.1938L68.1298 84.2833L70.9698 82.7798L81.3277 45.7113Z" fill="#001C18"/>
<path d="M81.3277 45.7112L40.5728 66.6225L70.9698 82.7798L81.3277 45.7112Z" fill="#001C18"/>
<path d="M10.1324 48.1234C10.1324 48.1234 62.847 77.1962 64.7859 78.1971C66.7247 79.1981 70.6522 80.861 75.98 78.2482C81.3078 75.6355 132.788 49.8154 132.788 49.8154L131.62 16.4212L131.133 15.6006L80.0059 40.5028L34.6169 16.8875L9.98267 47.1564L10.1324 48.1234Z" fill="#001C18"/>
<path d="M9.98273 47.1564C9.98273 47.1564 62.6974 76.2291 64.6369 77.2341C66.5764 78.2391 70.5026 79.8939 75.831 77.2852C81.1594 74.6765 131.922 49.2416 131.922 49.2416L131.136 15.6205L79.8532 39.5158L34.4648 15.9044L9.98273 47.1564Z" fill="#87D1A4"/>
<path d="M36.6659 14.9254L11.4072 46.6577L64.1218 75.7304C64.1218 75.7304 66.5096 74.1334 68.3316 73.8513C70.1537 73.5693 74.6702 76.5525 74.6702 76.5525L129.492 48.7993L129.039 15.5032L123.74 14.0691L80.8408 37.4112L38.4041 14.6564L36.6659 14.9254Z" fill="#EFE8C5"/>
<path d="M124.742 14.3067C124.709 17.0532 124.639 19.7972 124.565 22.5418L124.287 30.7678L123.926 39.0067L123.717 43.1305L123.465 47.2365L123.538 43.1337L123.646 39.0254L123.92 30.8001L124.281 22.5611C124.416 19.7866 124.557 17.0481 124.742 14.3067Z" fill="#FFD1A3"/>
<path d="M125.512 14.6541C125.521 17.3531 125.528 20.0442 125.479 22.7439L125.345 30.8333L125.127 38.919L124.988 42.9625L124.796 47.006L124.795 42.9596L124.832 38.9156L124.973 30.809L125.194 22.7227C125.282 20.0414 125.376 17.3468 125.512 14.6541Z" fill="#FFD1A3"/>
<path d="M126.495 14.9234C126.532 17.6221 126.512 20.3215 126.52 23.0166L126.462 31.1021L126.288 39.1977L126.177 43.2408L126.03 47.2856L125.997 43.2401L126 39.193L126.074 31.105L126.237 23.0153C126.303 20.3171 126.38 17.617 126.495 14.9234Z" fill="#FFD1A3"/>
<path d="M127.45 15.1724C127.507 17.8681 127.528 20.5653 127.54 23.2597L127.531 31.3459L127.432 39.4296L127.354 43.4718L127.239 47.5116L127.173 43.4671L127.149 39.4244L127.158 31.3382L127.252 23.2551C127.286 20.5658 127.355 17.867 127.45 15.1724Z" fill="#FFD1A3"/>
<path d="M128.393 15.4519C128.475 18.1764 128.517 20.9031 128.547 23.6111L128.606 31.7851L128.58 39.9721L128.539 44.0699L128.459 48.1739L128.36 44.0977L128.3 40.0154L128.262 31.8383L128.288 23.6513C128.289 20.8852 128.32 18.176 128.393 15.4519Z" fill="#FFD1A3"/>
<path d="M15.9687 44.54C15.9687 44.54 27.7929 50.5122 37.5633 54.1591C47.3338 57.8061 66.1574 67.6824 68.3325 73.8307C72.9061 67.5092 78.6942 59.359 91.4437 55.9779C104.193 52.5969 119.98 48.4592 121.983 46.8318C122.233 41.1549 123.767 14.0362 123.767 14.0362C119.498 15.5547 115.144 16.8256 110.728 17.8426C103.918 19.3633 83.2248 27.1735 80.8608 37.4081C76.5463 30.1794 71.2491 26.3023 61.7212 23.6407C52.1933 20.979 38.4041 14.6564 38.4041 14.6564L15.9687 44.54Z" fill="#FBF9EF"/>
<path d="M68.3417 73.8376C72.9061 67.5093 78.6942 59.3591 91.4437 55.978C104.193 52.597 119.98 48.4593 121.983 46.8319C122.233 41.155 123.767 14.0363 123.767 14.0363C119.498 15.5548 115.144 16.8257 110.728 17.8427C103.918 19.3634 83.2248 27.1736 80.8608 37.4082L68.3417 73.8376Z" fill="#FBF9EF"/>
<path d="M100.814 54.7157C77.0979 63.399 68.3418 73.8375 68.3418 73.8375C70.1758 73.5536 74.6803 76.5387 74.6803 76.5387L129.502 48.7856C129.502 48.7856 124.386 47.45 121.965 46.8509C119.397 48.8933 114.265 49.7081 100.814 54.7157Z" fill="#FBF9EF"/>
<path d="M50.8234 58.4116C42.1958 54.2972 15.9686 44.54 15.9686 44.54L11.3865 46.6568L64.1012 75.7295C64.1012 75.7295 66.4889 74.1325 68.311 73.8504C68.3799 68.0052 59.447 62.5265 50.8234 58.4116Z" fill="#FBF9EF"/>
<path d="M50.8234 58.4116C42.1958 54.2972 15.9686 44.54 15.9686 44.54C15.9686 44.54 50.3087 60.5575 54.669 62.6116C59.0294 64.6656 67.5124 70.304 68.3417 73.8375C68.3799 68.0053 59.447 62.5266 50.8234 58.4116Z" fill="#FCCE98"/>
<path d="M15.6941 45.8059C15.6941 45.8059 60.1951 67.9671 68.3417 73.8375C62.1381 67.7522 29.806 51.3585 15.6941 45.8059Z" fill="#FCCE98"/>
<path d="M14.3795 46.0094L20.8819 49.3726L27.3693 52.7708L40.3155 59.6209L53.2162 66.5475L59.6567 70.0389L66.0734 73.5626L59.571 70.1995L53.0837 66.8012L40.1375 59.9512L27.2361 53.0206L20.7963 49.5331L14.3795 46.0094Z" fill="#FCCE98"/>
<path d="M70.1757 73.5536C72.1267 72.0691 74.1248 70.651 76.1275 69.2363C78.1302 67.8216 80.176 66.4739 82.2363 65.1402C83.2658 64.4694 84.3018 63.814 85.3534 63.1807C86.4051 62.5474 87.458 61.922 88.5549 61.3431C90.7491 60.2138 93.008 59.2381 95.2764 58.2978C97.5449 57.3575 99.8494 56.5179 102.149 55.675C104.449 54.8321 106.749 53.9892 109.068 53.1884C111.386 52.3876 113.675 51.5792 116 50.7406C118.319 49.9585 120.593 49.0505 122.813 48.0207C121.748 48.6326 120.646 49.1788 119.515 49.6564C118.393 50.1533 117.257 50.6155 116.127 51.081C113.845 51.9866 111.556 52.8523 109.266 53.7265C104.686 55.4624 100.079 57.1289 95.559 58.9864C93.2942 59.8975 91.0396 60.848 88.8731 61.9444C87.7964 62.4957 86.7352 63.0936 85.6841 63.7309L82.538 65.6091C80.4478 66.8818 78.3799 68.1921 76.3276 69.5245C74.2753 70.8569 72.2215 72.2058 70.1757 73.5536Z" fill="#FCCE98"/>
<path d="M72.1357 73.7657C76.1673 71.1232 80.3068 68.6576 84.5541 66.369C86.6707 65.223 88.8193 64.1253 90.9999 63.0759C92.0797 62.5446 93.1822 62.0548 94.2783 61.5496C95.3743 61.0444 96.4892 60.5814 97.6 60.1189C102.043 58.2651 106.464 56.3532 110.876 54.4266C113.083 53.4656 115.285 52.4893 117.48 51.4976C118.578 51.0044 119.676 50.5112 120.763 49.9993C121.849 49.4874 122.945 48.9782 124.001 48.3974C119.783 50.7278 115.372 52.6831 110.993 54.6865C106.615 56.69 102.185 58.5745 97.743 60.4609C93.2866 62.28 88.9393 64.3809 84.6948 66.6172C82.5653 67.7324 80.4545 68.8897 78.3626 70.0892C76.2595 71.278 74.1813 72.4958 72.1357 73.7657Z" fill="#FCCE98"/>
<path d="M67.0451 66.2276L66.5708 65.6218C64.9908 63.6611 58.3415 59.3223 51.8048 56.4513C45.5572 53.7033 27.0762 45.3533 26.8877 45.272L26.4448 45.0542L44.4348 19.5452L44.8097 19.7203C44.9666 19.782 60.4754 25.7689 66.6078 28.5388C72.7401 31.3087 77.9627 36.2898 78.0159 36.3429L78.3785 36.7819L78.3346 36.895C78.2742 37.0599 72.1441 53.2824 67.1654 65.9471L67.0451 66.2276ZM27.245 45.0162C29.2926 45.9267 46.0633 53.5104 51.9517 56.1053C57.8401 58.7002 64.5695 62.8425 66.6574 65.1501C71.3877 53.1008 77.1082 37.985 77.665 36.5077C76.9574 35.848 72.1106 31.4184 66.4531 28.8614C60.6376 26.2348 46.3686 20.6983 44.8079 20.1052L27.245 45.0162Z" fill="#004B40"/>
<path d="M73.2172 65.1044L72.4895 66.1131L82.5766 35.9111L82.5966 35.908C82.6365 35.8486 86.7236 29.9788 92.0692 27.032C100.173 22.7948 114.544 19.0768 114.688 19.03L115.636 18.785L115.597 19.0611L111.525 46.1963L111.507 46.3218L110.72 46.5254C78.8399 53.6657 73.2862 64.9955 73.2172 65.1044ZM82.9315 36.0894L73.7115 63.7513C76.0879 60.6013 84.7283 52.0054 110.533 46.1862C111.619 38.9561 114.183 21.8454 114.542 19.4577C112.517 19.992 99.7229 23.4537 92.277 27.3435C87.1544 30.1454 83.2001 35.6836 82.9315 36.0894Z" fill="#004B40"/>
</svg>
