<svg width="393" height="418" viewBox="0 0 393 418" fill="none" xmlns="http://www.w3.org/2000/svg">
<rect x="26" width="341" height="418" rx="18" fill="#186351"/>
<g clip-path="url(#clip0_305_15)">
<path d="M320.44 123.765L117.543 251.324L113.822 257.864C134.428 250.28 135.11 259.851 147.713 258.823C136.622 269.025 128.984 291.583 116.926 297.044C107.11 301.498 88.8614 310.209 82.4295 313.29L68.3072 338.287L74.07 345.42L332.433 200.049L324.407 126.971L320.44 123.765Z" fill="#001C18"/>
<path d="M301.236 297.268C290.641 291.282 288.504 267.471 280.001 256.539C292.966 257.987 301.055 248.605 323.323 260.34L321.414 247.121L106.258 141.995L47.328 203.743L44.6487 209.256L330.271 345.587L334.878 340.388L331.202 314.955C325.441 311.463 309.774 302.087 301.236 297.268Z" fill="#001C18"/>
<path d="M323.331 260.338L319.36 264.889C314.618 261.718 309.173 259.756 303.499 259.174C294.51 258.421 291.629 262.994 279.115 260.743C277.919 260.009 277.039 258.858 276.643 257.512C276.248 256.166 276.365 254.722 276.974 253.458L303.413 249.225L323.331 260.338Z" fill="#001C18"/>
<path d="M301.236 297.268C290.641 291.282 288.504 267.471 280.001 256.539C292.966 257.987 301.055 248.605 323.323 260.34L321.414 247.121L94.3823 138.931L47.328 203.743L334.899 340.357L331.224 314.923C325.441 311.463 309.774 302.087 301.236 297.268Z" fill="#004B40"/>
<path d="M209.26 193.667L130.454 243.215L198.373 275.486L282.1 228.37L209.26 193.667Z" fill="#001C18"/>
<path d="M113.822 257.864L117.598 263.309C117.598 263.309 123.24 258.588 130.24 260.852C137.24 263.115 143.539 267.182 152.959 262.651C153.508 258.968 152.777 255.209 150.889 252C150.889 252 127.085 249.469 126.588 249.566C126.09 249.662 113.822 257.864 113.822 257.864Z" fill="#001C18"/>
<path d="M117.543 251.324L113.822 257.864C134.428 250.28 135.11 259.851 147.713 258.823C136.622 269.025 128.984 291.583 116.926 297.044C107.11 301.498 88.8614 310.209 82.4295 313.29L68.3072 338.287L326.895 196.215L320.44 123.765L117.543 251.324Z" fill="#004B40"/>
<path d="M208.949 189.46L114.529 242.578L183.199 275.355L189.314 271.811L208.949 189.46Z" fill="#001C18"/>
<path d="M208.949 189.46L121.137 238.865L189.314 271.811L208.949 189.46Z" fill="#001C18"/>
<path d="M52.6675 200.776C52.6675 200.776 170.989 260.224 175.335 262.261C179.681 264.297 188.454 267.62 199.944 261.427C211.433 255.235 322.404 194.135 322.404 194.135L317.017 120.834L315.877 119.071L205.604 178.124L103.846 130.052L52.2568 198.663L52.6675 200.776Z" fill="#001C18"/>
<path d="M52.2569 198.663C52.2569 198.663 170.578 258.112 174.926 260.157C179.274 262.202 188.043 265.507 199.535 259.323C211.026 253.139 320.452 192.947 320.452 192.947L315.885 119.115L205.185 175.967L103.428 127.904L52.2569 198.663Z" fill="#87D1A4"/>
<path d="M108.183 125.566L55.3454 197.446L173.667 256.895C173.667 256.895 178.78 253.183 182.761 252.409C186.742 251.635 196.921 257.811 196.921 257.811L315.075 192.18L311.267 119.034L299.497 116.329L207.178 171.258L111.981 124.828L108.183 125.566Z" fill="#EFE8C5"/>
<path d="M301.721 116.767C301.88 122.806 301.957 128.844 302.026 134.882L302.111 152.986L302.013 171.126L301.903 180.207L301.695 189.254L301.508 180.23L301.4 171.191L301.306 153.088L301.404 134.949C301.467 128.839 301.545 122.808 301.721 116.767Z" fill="#FFD1A3"/>
<path d="M303.442 117.465C303.689 123.397 303.933 129.311 304.054 135.249L304.441 153.041L304.646 170.831L304.682 179.731L304.601 188.635L304.258 179.741L303.997 170.849L303.621 153.019L303.424 135.227C303.392 129.326 303.372 123.395 303.442 117.465Z" fill="#FFD1A3"/>
<path d="M305.625 117.974C305.935 123.903 306.119 129.838 306.364 135.761L306.92 153.537L307.22 171.346L307.318 180.242L307.336 189.145L306.922 180.256L306.588 171.36L306.067 153.576L305.743 135.782C305.658 129.846 305.6 123.904 305.625 117.974Z" fill="#FFD1A3"/>
<path d="M307.745 118.441C308.099 124.361 308.372 130.288 308.626 136.209L309.29 153.983L309.756 171.759L309.926 180.65L310.013 189.539L309.528 180.655L309.133 171.771L308.468 153.998L307.994 136.223C307.841 130.309 307.765 124.371 307.745 118.441Z" fill="#FFD1A3"/>
<path d="M309.842 118.975C310.253 124.957 310.575 130.947 310.87 136.896L311.689 154.857L312.324 172.854L312.581 181.865L312.75 190.892L312.188 181.941L311.713 172.973L310.938 155.003L310.303 137.006C310.072 130.926 309.911 124.969 309.842 118.975Z" fill="#FFD1A3"/>
<path d="M65.1927 192.407C65.1927 192.407 91.6866 204.535 113.47 211.725C135.253 218.916 177.461 239.034 182.761 252.364C192.28 238.083 204.314 219.68 232.051 211.172C259.789 202.664 294.138 192.236 298.402 188.489C298.473 175.991 299.555 116.255 299.555 116.255C290.299 119.953 280.837 123.114 271.216 125.723C256.376 129.64 211.553 148.555 207.222 171.25C197.128 155.726 185.157 147.651 163.99 142.606C142.824 137.56 111.981 124.828 111.981 124.828L65.1927 192.407Z" fill="#FBF9EF"/>
<path d="M182.782 252.378C192.28 238.083 204.314 219.68 232.051 211.172C259.789 202.663 294.138 192.236 298.402 188.489C298.474 175.991 299.555 116.255 299.555 116.255C290.299 119.953 280.837 123.114 271.216 125.723C256.376 129.64 211.553 148.555 207.222 171.25L182.782 252.378Z" fill="#FBF9EF"/>
<path d="M252.541 207.606C201.146 228.695 182.782 252.378 182.782 252.378C186.789 251.599 196.942 257.78 196.942 257.78L315.096 192.148C315.096 192.148 303.737 189.645 298.366 188.533C292.893 193.239 281.683 195.463 252.541 207.606Z" fill="#FBF9EF"/>
<path d="M142.974 219.952C123.664 211.637 65.1927 192.406 65.1927 192.406L55.3001 197.446L173.621 256.895C173.621 256.895 178.735 253.183 182.716 252.409C182.374 239.556 162.276 228.268 142.974 219.952Z" fill="#FBF9EF"/>
<path d="M142.974 219.952C123.664 211.637 65.1927 192.406 65.1927 192.406C65.1927 192.406 142.024 224.712 151.782 228.858C161.539 233.005 180.661 244.681 182.782 252.378C182.374 239.556 162.276 228.268 142.974 219.952Z" fill="#FCCE98"/>
<path d="M64.6962 195.212C64.6962 195.212 164.38 240.163 182.782 252.378C168.633 239.527 96.1828 206.225 64.6962 195.212Z" fill="#FCCE98"/>
<path d="M61.824 195.77L76.4002 202.613L90.9463 209.535L119.98 223.497L148.921 237.632L163.372 244.762L177.773 251.965L163.197 245.122L148.651 238.201L119.617 224.238L90.6746 210.095L76.2255 202.973L61.824 195.77Z" fill="#FCCE98"/>
<path d="M186.789 251.599C190.952 248.171 195.224 244.886 199.507 241.607C203.789 238.328 208.172 235.193 212.587 232.088C214.794 230.527 217.015 228.999 219.273 227.518C221.531 226.037 223.793 224.573 226.155 223.208C230.882 220.541 235.765 218.205 240.671 215.947C245.578 213.689 250.572 211.649 255.556 209.602C260.54 207.555 265.524 205.508 270.553 203.552C275.581 201.596 280.544 199.626 285.584 197.586C290.614 195.671 295.536 193.483 300.328 191.032C298.039 192.467 295.664 193.761 293.217 194.906C290.793 196.093 288.336 197.205 285.89 198.324C280.951 200.507 275.995 202.603 271.033 204.718C261.114 208.92 251.129 212.972 241.351 217.437C236.45 219.631 231.574 221.91 226.905 224.503C224.585 225.806 222.303 227.21 220.047 228.699L213.29 233.093C208.804 236.067 204.369 239.122 199.971 242.224C195.572 245.325 191.172 248.464 186.789 251.599Z" fill="#FCCE98"/>
<path d="M191.115 251.9C199.753 245.751 208.643 239.982 217.786 234.593C222.341 231.895 226.971 229.301 231.675 226.81C234.004 225.551 236.386 224.382 238.752 223.179C241.119 221.976 243.53 220.864 245.932 219.754C255.541 215.304 265.098 210.728 274.631 206.121C279.403 203.822 284.159 201.49 288.9 199.125C291.271 197.948 293.643 196.771 295.989 195.554C298.334 194.337 300.699 193.126 302.97 191.76C293.897 197.238 284.367 201.909 274.912 206.682C265.457 211.455 255.879 215.972 246.276 220.493C236.634 224.868 227.256 229.853 218.116 235.127C213.529 237.758 208.988 240.48 204.491 243.293C199.969 246.084 195.504 248.936 191.115 251.9Z" fill="#FCCE98"/>
<path d="M179.289 235.761L178.196 234.469C174.557 230.293 159.576 221.318 144.966 215.56C131.002 210.048 89.6755 193.256 89.2543 193.093L88.2625 192.652L125.649 135.064L126.488 135.417C126.838 135.539 161.432 147.389 175.145 152.959C188.857 158.529 200.757 169.036 200.879 169.148L201.713 170.083L201.626 170.335C201.507 170.702 189.403 206.877 179.53 235.134L179.289 235.761ZM90.018 192.501C94.5954 194.329 132.098 209.581 145.259 214.787C158.421 219.993 173.562 228.53 178.346 233.425C187.726 206.542 199.022 172.834 200.121 169.54C198.51 168.15 187.483 158.823 174.832 153.681C161.828 148.399 129.997 137.435 126.517 136.263L90.018 192.501Z" fill="#004B40"/>
<path d="M192.76 232.771L191.246 235.049L210.866 167.814L210.91 167.806C210.993 167.672 219.48 154.425 230.981 147.496C248.436 137.498 279.708 128.113 280.021 127.998L282.084 127.379L282.022 127.989L275.362 187.976L275.334 188.253L273.622 188.767C204.153 207.154 192.903 232.526 192.76 232.771ZM211.662 168.176L193.733 229.755C198.69 222.631 216.955 203.007 273.181 188.037C274.958 172.054 279.148 134.228 279.735 128.95C275.33 130.296 247.501 138.985 231.464 148.163C220.441 154.755 212.218 167.262 211.662 168.176Z" fill="#004B40"/>
</g>
<path d="M314.5 78C314.5 78 313.901 86.75 306 87.5C313.901 88.375 314.5 97 314.5 97C314.5 97 315.099 88.25 323 87.5C315.099 86.75 314.5 78 314.5 78Z" fill="#FFD08A"/>
<path d="M128.5 98C128.5 98 128.254 101.684 125 102C128.254 102.368 128.5 106 128.5 106C128.5 106 128.746 102.316 132 102C128.746 101.684 128.5 98 128.5 98Z" fill="#FFD08A"/>
<path d="M318.5 226C318.5 226 318.254 229.684 315 230C318.254 230.368 318.5 234 318.5 234C318.5 234 318.746 230.316 322 230C318.746 229.684 318.5 226 318.5 226Z" fill="#FFD08A"/>
<path d="M54 267C54 267 52.9437 281.737 39 283C52.9437 284.474 54 299 54 299C54 299 55.0563 284.263 69 283C55.0563 281.737 54 267 54 267Z" fill="#FFD08A"/>
<defs>
<clipPath id="clip0_305_15">
<rect width="346.197" height="346.197" fill="white" transform="translate(0 67.959) rotate(-8.79929)"/>
</clipPath>
</defs>
</svg>
